<?xml version="1.0" standalone="no"?>
<!DOCTYPE svg PUBLIC "-//W3C//DTD SVG 20010904//EN"
 "http://www.w3.org/TR/2001/REC-SVG-20010904/DTD/svg10.dtd">
<svg version="1.0" xmlns="http://www.w3.org/2000/svg"
 width="499.000000pt" height="129.000000pt" viewBox="0 0 499.000000 129.000000"
 preserveAspectRatio="xMidYMid meet">

<g transform="translate(0.000000,129.000000) scale(0.100000,-0.100000)"
fill="#000000" stroke="none">
<path d="M947 983 c-27 -7 -49 -57 -37 -87 18 -48 70 -59 114 -25 61 48 4 133
-77 112z"/>
<path d="M3376 969 c-35 -28 -35 -70 0 -98 34 -27 64 -27 92 -1 31 29 29 73
-4 99 -15 12 -34 21 -44 21 -10 0 -29 -9 -44 -21z"/>
<path d="M190 970 c0 -5 13 -10 28 -10 60 0 62 -8 62 -317 0 -258 -1 -281 -18
-296 -10 -10 -26 -17 -35 -17 -9 0 -17 -4 -17 -10 0 -6 100 -10 279 -10 l279
0 7 47 c14 111 21 193 14 193 -3 0 -16 -27 -29 -59 -23 -62 -68 -117 -108
-132 -38 -15 -188 -11 -201 5 -8 9 -11 96 -9 297 l3 284 33 10 c17 5 32 13 32
17 0 4 -72 8 -160 8 -100 0 -160 -4 -160 -10z"/>
<path d="M1130 970 c0 -5 9 -10 20 -10 10 0 24 -9 30 -19 6 -12 10 -135 10
-330 0 -171 2 -311 5 -311 3 0 23 12 45 26 l39 26 26 -20 c58 -46 167 -36 231
20 52 46 76 101 82 184 4 61 1 80 -20 126 -27 58 -69 93 -126 104 -37 7 -99
-11 -129 -39 l-23 -20 0 136 0 137 -95 0 c-57 0 -95 -4 -95 -10z m319 -282
c28 -29 34 -67 29 -191 -2 -88 -6 -110 -24 -134 -30 -40 -84 -44 -113 -7 -19
24 -21 39 -21 170 0 142 0 143 26 163 35 27 78 27 103 -1z"/>
<path d="M2690 969 c0 -7 8 -18 18 -25 15 -11 17 -38 17 -299 0 -272 -1 -287
-19 -301 -11 -8 -33 -14 -49 -14 -16 0 -26 -4 -22 -10 4 -6 113 -10 294 -10
l288 0 7 73 c3 39 9 93 12 120 8 61 -9 62 -26 2 -17 -61 -64 -123 -105 -141
-49 -20 -189 -19 -209 2 -14 13 -16 54 -16 288 0 252 1 274 18 289 10 10 33
17 50 17 18 0 32 5 32 10 0 6 -55 10 -145 10 -102 0 -145 -3 -145 -11z"/>
<path d="M4150 971 c0 -5 9 -12 19 -16 10 -3 22 -16 25 -28 3 -12 6 -143 6
-290 l0 -268 -25 -25 c-14 -14 -25 -27 -25 -29 0 -3 52 -5 115 -5 114 0 136 6
93 25 -20 9 -23 18 -26 83 -3 69 6 102 28 102 4 0 31 -35 59 -78 49 -75 63
-112 41 -112 -5 0 -10 -4 -10 -10 0 -6 45 -10 115 -10 70 0 115 4 115 10 0 6
-6 10 -13 10 -20 0 -56 43 -141 167 l-76 111 67 62 c38 33 80 64 96 67 58 12
23 23 -73 23 -95 0 -129 -11 -75 -24 47 -12 32 -47 -52 -126 l-78 -73 -3 222
-2 221 -90 0 c-50 0 -90 -4 -90 -9z"/>
<path d="M1985 755 c-16 -9 -45 -32 -62 -53 l-33 -37 0 48 0 47 -90 0 c-84 0
-115 -11 -71 -25 27 -8 31 -32 31 -200 0 -168 -4 -192 -31 -200 -48 -16 -10
-25 101 -25 73 0 120 4 120 10 0 6 -8 10 -19 10 -34 0 -41 24 -42 141 -1 114
8 158 38 191 22 24 38 23 67 -7 30 -30 50 -31 76 -5 38 38 13 120 -37 120 -10
0 -31 -7 -48 -15z"/>
<path d="M2305 760 c-79 -20 -135 -68 -135 -116 0 -53 62 -81 108 -48 27 18
28 46 5 86 -17 28 -17 30 1 44 28 20 80 18 99 -4 12 -13 17 -36 17 -73 l0 -54
-77 -40 c-134 -68 -185 -134 -155 -200 29 -64 95 -68 180 -11 l50 33 15 -33
c27 -56 93 -57 155 0 l24 21 -29 5 -28 5 -5 155 c-3 102 -10 163 -18 178 -28
48 -126 73 -207 52z m78 -366 c-22 -17 -65 -18 -81 -2 -17 17 -15 64 5 94 9
14 32 36 52 50 l36 24 3 -76 c2 -64 0 -78 -15 -90z"/>
<path d="M3860 759 c-13 -6 -39 -21 -57 -35 l-33 -25 0 30 0 31 -90 0 c-92 0
-110 -8 -65 -28 l25 -12 -2 -187 c-3 -184 -3 -188 -25 -198 -44 -19 -22 -25
92 -25 63 0 115 3 115 6 0 3 -10 14 -22 24 -21 17 -23 28 -27 145 -3 135 5
174 43 200 29 21 63 19 76 -4 5 -11 10 -85 10 -170 0 -123 -3 -152 -16 -165
-8 -9 -20 -16 -25 -16 -5 0 -9 -4 -9 -10 0 -6 45 -10 115 -10 70 0 115 4 115
10 0 6 -4 10 -9 10 -5 0 -17 7 -25 16 -13 13 -16 43 -16 171 0 177 -9 211 -65
237 -37 18 -68 19 -105 5z"/>
<path d="M850 750 c0 -5 6 -10 14 -10 8 0 22 -7 30 -16 24 -23 24 -355 0 -378
-8 -9 -22 -16 -30 -16 -8 0 -14 -4 -14 -10 0 -6 48 -10 125 -10 116 0 157 10
101 24 -13 3 -26 16 -30 28 -3 13 -6 107 -6 211 l0 187 -95 0 c-57 0 -95 -4
-95 -10z"/>
<path d="M3300 752 c0 -4 10 -12 23 -17 22 -10 22 -13 22 -200 0 -187 0 -190
-22 -200 -44 -19 -22 -25 97 -25 119 0 141 6 98 25 -23 10 -23 13 -26 218 l-2
207 -95 0 c-52 0 -95 -3 -95 -8z"/>
<path d="M4747 438 c-42 -37 -45 -72 -8 -109 27 -26 37 -30 64 -25 88 17 89
135 1 152 -24 4 -37 0 -57 -18z"/>
</g>
</svg>
